<svg xmlns="http://www.w3.org/2000/svg" viewBox="0 0 870.68 255.29"><defs><style>.cls-1{fill:#fff;}</style></defs><title>Asset 1</title><g id="Layer_2" data-name="Layer 2"><g id="Layer_1-2" data-name="Layer 1"><path class="cls-1" d="M119,130.87q-4.78-25.17-13.55-90a26.17,26.17,0,0,1-.26-3.87,33.68,33.68,0,0,1,5.42-18,32.83,32.83,0,0,1,15.23-13,32.26,32.26,0,0,1,13.42-2.84q17.82,0,26.72,13.42,22.46,31.5,45.17,63.11,27.24,37.83,39.76,66.34a26.14,26.14,0,0,1,2.58,11.1q0,15.88-15.62,22.85a32.76,32.76,0,0,1-12.91,3.1q-12.65,0-21.68-13.94L159.14,98.86q5.55,29.06,13.94,88a43.72,43.72,0,0,1,.26,4.77q0,17.18-17.17,24.78a31.24,31.24,0,0,1-12.91,3q-11.87,0-20.39-10.06l-57.82-69Q74,166.49,89.31,219.93A38.38,38.38,0,0,1,91,230.51Q91,245.62,74.21,253a26.7,26.7,0,0,1-11.1,2.32q-15.75,0-22.71-15.23Q27.74,211.41,17.68,166,9.3,127.91.77,89.83A24.26,24.26,0,0,1,0,83.51,33.14,33.14,0,0,1,5.29,65.89,31.83,31.83,0,0,1,20.13,53.18a32.93,32.93,0,0,1,13.69-3q16.13,0,25.94,11.35Z"/><path class="cls-1" d="M321.76,223.67q-32-5-52.91-28.46a79.82,79.82,0,0,1-20.91-54.91,91.54,91.54,0,0,1,1-13.69L263.81,33.3q1.54-10.84,8.71-16.91a25.46,25.46,0,0,1,17-6.06,27.43,27.43,0,0,1,19.16,7.09q7.81,7.11,7.81,18.85a21.2,21.2,0,0,1-.64,5.16l-14.2,91.25a58.68,58.68,0,0,0-.52,7.62q0,14.83,9.36,24.78t24.2,9.93A31.19,31.19,0,0,0,357,166a39.77,39.77,0,0,0,11.74-22.72l14.33-91q1.8-11.1,8.84-17.16A24.73,24.73,0,0,1,408.63,29q11.61,0,19.29,7.29t7.68,18.91c0,1.72-.09,3.49-.26,5.29L420.5,153.85q-4.9,31.49-29.11,51.17A85.73,85.73,0,0,1,335.7,224.7,96.51,96.51,0,0,1,321.76,223.67Z"/><path class="cls-1" d="M573.06,214.38,469.93,227a21.62,21.62,0,0,1-4.64.51q-11.12,0-18.4-6.06t-8.58-16.39q-1.43-9.81,3.87-19.75l64-117.19-56.27,7q-10.33,1.29-18.07-3.75-8.4-5.53-9.68-16.39a22.86,22.86,0,0,1,5.22-18.39,24.16,24.16,0,0,1,16.72-9.1L540,15.62c1.81-.17,3.4-.26,4.78-.26q11.61,0,18.78,6.45a24.18,24.18,0,0,1,8.19,15.75A35.08,35.08,0,0,1,567.25,59L503.88,174.5l63.37-7.75q10.85-1.29,18.45,3.75,8.52,5.81,9.81,16.9a22,22,0,0,1-5.68,18.14A25.46,25.46,0,0,1,573.06,214.38Z"/><path class="cls-1" d="M729,214.38,625.84,227a21.55,21.55,0,0,1-4.64.51q-11.1,0-18.4-6.06t-8.58-16.39q-1.43-9.81,3.87-19.75l64-117.19-56.27,7q-10.33,1.29-18.07-3.75-8.38-5.53-9.68-16.39a22.86,22.86,0,0,1,5.23-18.39A24.14,24.14,0,0,1,600,27.49l95.9-11.87c1.8-.17,3.39-.26,4.77-.26q11.63,0,18.78,6.45a24.19,24.19,0,0,1,8.2,15.75A35.09,35.09,0,0,1,723.16,59L659.79,174.5l63.37-7.75q10.85-1.29,18.46,3.75,8.5,5.81,9.8,16.9a22,22,0,0,1-5.67,18.14A25.48,25.48,0,0,1,729,214.38Z"/><path class="cls-1" d="M856.87,31.75l-16.65,82.47L868,176.82a26.11,26.11,0,0,1,2.71,11.62q0,15.62-16.13,22.71a29.36,29.36,0,0,1-12.26,3q-15.49,0-22.72-15.87l-27.75-62.34-72.4-42.85q-13.17-8-13.17-23.24,0-16.38,15.23-23.36A27,27,0,0,1,733,43.88a23.33,23.33,0,0,1,12.91,3.75l48.91,29.81,10.59-56.53a23.43,23.43,0,0,1,9.22-15A26.94,26.94,0,0,1,831.45,0q16.38,0,23.36,15.36A27.2,27.2,0,0,1,856.87,31.75Z"/></g></g></svg>